<svg id="Layer_1" data-name="Layer 1" xmlns="http://www.w3.org/2000/svg" width="536.27" height="88.5" viewBox="0 0 536.27 88.5"><title>zend-framework-logo</title><path d="M124,62.19s0-24.34,24.34-24.34h73s0,24.34-24.34,24.34Z" transform="translate(-37.53 -36.61)" fill="#68b604"/><path d="M124,93.29S124,69,148.3,69h36.51s0,24.34-24.34,24.34Z" transform="translate(-37.53 -36.61)" fill="#68b604"/><path d="M124,124.39S124,100,148.3,100h12.17s0,24.34-24.34,24.34Z" transform="translate(-37.53 -36.61)" fill="#68b604"/><polygon points="78.27 68.78 78.27 88.2 0 88.2 50.42 19.42 7.14 19.42 7.14 0 88.78 0 38.6 68.78 78.27 68.78" fill="#68b604"/><path d="M263.83,75H238.46V70.46L258,42.33H239.32V38h24V42.4L243.68,70.67h20.15V75Zm27.69-4.37V75H268.73V38h22.79v4.37H273.6V52.49h16.69v4.37H273.6v13.8Zm26,4.37-16.09-32V75h-4.5V38h6.84l14.65,29.36V38h4.5V75ZM357,65.7a16.06,16.06,0,0,1-5.4,6.37,16.71,16.71,0,0,1-5.6,2.37,36.34,36.34,0,0,1-7.25.6h-8.37V38h8.27a32.38,32.38,0,0,1,8,.79,16.71,16.71,0,0,1,5,2.15,15.86,15.86,0,0,1,5.44,6.29A21,21,0,0,1,359,56.53a20.46,20.46,0,0,1-2,9.16Zm-4.42-16.54a10.65,10.65,0,0,0-4.11-4.72,13.89,13.89,0,0,0-4.11-1.71,23.9,23.9,0,0,0-5.45-.52h-3.67V70.79h3.67a26.68,26.68,0,0,0,5.61-.52,11.87,11.87,0,0,0,4.4-1.94,10.79,10.79,0,0,0,3.77-4.64,18.1,18.1,0,0,0,1.26-7.23,17.46,17.46,0,0,0-1.38-7.3ZM249.85,94.26v7h14v7h-14v16h-9.12V87.23h24.39v7Zm41.33,14.28,12.23,15.78H292.28L282.14,110.7h-3.23v13.61h-9.11V87.23h14.64a31.76,31.76,0,0,1,5.28.39,11.16,11.16,0,0,1,4.15,1.61,9.56,9.56,0,0,1,3.1,3.22,9.67,9.67,0,0,1,1.15,5,11.64,11.64,0,0,1-1.89,6.91,13.34,13.34,0,0,1-5,4.22Zm-3-12.38a3.5,3.5,0,0,0-1.74-1.57,6,6,0,0,0-1.9-.47c-.7-.07-1.56-.1-2.6-.1h-3v10h2.6a18.89,18.89,0,0,0,3.22-.24,4.75,4.75,0,0,0,2.25-1,4.38,4.38,0,0,0,1.3-1.68,6.51,6.51,0,0,0,.42-2.56,5.21,5.21,0,0,0-.52-2.41Zm39.18,28.16-2.25-7.52h-11.5l-2.25,7.52h-9.15l12.27-37.08h10l12.27,37.08Zm-8-26.6L315.63,110h7.47l-3.73-12.31Zm49,26.6V99.72l-6.6,15.84h-6.21l-6.6-15.84v24.59h-8.62V87.23h10.54l8,18.28,8-18.28h10.55v37.08Zm41.28-7v7H385V87.23h24.64v7H394.1v6.53h14.29v7H394.1v9.49Zm43.85,7h-10l-5.87-22.94-5.69,22.94h-10l-9.21-37.08h9.46l5,24.92,6.12-24.92h9.06l5.8,24.94,5.29-24.94h9.2l-9.21,37.08Zm42-4.36q-4.7,5.16-12.89,5.16t-12.89-5.22q-4.68-5.23-4.68-14.1t4.68-14.15q4.68-5.21,12.89-5.2t12.89,5.18q4.7,5.17,4.7,14.18T495.52,120Zm-5.39-19.83a11.72,11.72,0,0,0-1.79-3.82,6.94,6.94,0,0,0-2.64-2.18,7.42,7.42,0,0,0-3.05-.66A6.67,6.67,0,0,0,477,96.24a11.44,11.44,0,0,0-1.81,3.84,24.32,24.32,0,0,0,0,11.37,11.61,11.61,0,0,0,1.8,3.77,6.84,6.84,0,0,0,2.65,2.21,7.44,7.44,0,0,0,3.06.66,7.22,7.22,0,0,0,3.11-.71,6.8,6.8,0,0,0,2.6-2.21,12.28,12.28,0,0,0,1.8-3.77,24.81,24.81,0,0,0,0-11.29ZM527,108.54l12.24,15.78H528.14L518,110.7h-3.23v13.61h-9.12V87.23H520.3a31.79,31.79,0,0,1,5.28.39,11.17,11.17,0,0,1,4.15,1.61,9.56,9.56,0,0,1,3.11,3.22,9.68,9.68,0,0,1,1.15,5,11.64,11.64,0,0,1-1.89,6.91,13.34,13.34,0,0,1-5.05,4.22Zm-3-12.38a3.49,3.49,0,0,0-1.74-1.57,6.07,6.07,0,0,0-1.9-.47q-1-.1-2.6-.1h-3v10h2.6a18.89,18.89,0,0,0,3.22-.24,4.75,4.75,0,0,0,2.25-1,4.38,4.38,0,0,0,1.3-1.68,6.49,6.49,0,0,0,.42-2.56,5.21,5.21,0,0,0-.52-2.41Zm49.76,28.16h-11l-9.92-15.08-1.78,2.55v12.53H542V87.23h9.12V103.7l11.61-16.46h10.56l-13,17.21,13.51,19.87Z" transform="translate(-37.53 -36.61)" fill="#fff"/></svg>